Coordinates
version=1
nRows=8
nColumns=40
inDegrees=yes

Units are S.I. units (second, meters, Newtons, ...)
If the header above contains a line with 'inDegrees', this indicates whether rotational values are in degrees (yes) or radians (no).

endheader
time	pelvis_tilt	pelvis_list	pelvis_rotation	pelvis_tx	pelvis_ty	pelvis_tz	hip_flexion_r	hip_adduction_r	hip_rotation_r	knee_angle_r	knee_angle_r_beta	ankle_angle_r	subtalar_angle_r	mtp_angle_r	hip_flexion_l	hip_adduction_l	hip_rotation_l	knee_angle_l	knee_angle_l_beta	ankle_angle_l	subtalar_angle_l	mtp_angle_l	lumbar_extension	lumbar_bending	lumbar_rotation	arm_flex_r	arm_add_r	arm_rot_r	elbow_flex_r	pro_sup_r	wrist_flex_r	wrist_dev_r	arm_flex_l	arm_add_l	arm_rot_l	elbow_flex_l	pro_sup_l	wrist_flex_l	wrist_dev_l
      0.65500000	    -15.97511493	     -0.41034112	     -1.46410678	      0.16367322	      0.71037324	     -1.20641884	     63.79772922	    -36.18418002	    -12.48920837	     76.51151002	      1.33537777	     17.52894733	     -2.26527394	      0.00000000	     64.62614265	    -40.07810680	    -14.24680178	     76.98150688	      1.34358076	     19.08148772	      7.98985609	      0.00000000	    -11.71852506	      0.51639071	     -2.58413876	     44.96934439	    -15.00308035	     44.96934439	     75.00025910	     45.00000023	      0.00000000	      0.00000000	     44.96934439	    -15.00308035	     44.96934439	     75.00025910	     45.00000023	      0.00000000	      0.00000000
      0.66000000	    -16.11057676	     -0.43253651	     -1.41731571	      0.16318596	      0.70717948	     -1.20656141	     64.40867167	    -36.36571385	    -12.22792241	     77.12007393	      1.34599921	     17.86530902	     -1.95527673	      0.00000000	     65.35048674	    -40.17320767	    -13.80655999	     77.58924254	      1.35418775	     19.33238012	      8.31305246	      0.00000000	    -11.69109978	      0.55136100	     -2.65750529	     44.96948412	    -15.00305804	     44.96948412	     75.00025802	     45.00000023	      0.00000000	      0.00000000	     44.96948412	    -15.00305804	     44.96948412	     75.00025802	     45.00000023	      0.00000000	      0.00000000
      0.66500000	    -15.89813293	     -0.44774106	     -1.41587363	      0.16292706	      0.70510409	     -1.20665524	     64.56324442	    -36.51587622	    -12.03513193	     77.61164832	      1.35457880	     17.91094050	     -1.94267007	      0.00000000	     65.52485170	    -40.33942864	    -13.60814684	     78.09331656	      1.36298550	     19.43919159	      8.25347803	      0.00000000	    -12.17610011	      0.58303991	     -2.66686327	     44.96958945	    -15.00304159	     44.96958945	     75.00025726	     45.00000023	      0.00000000	      0.00000000	     44.96958945	    -15.00304159	     44.96958945	     75.00025726	     45.00000023	      0.00000000	      0.00000000
      0.67000000	    -16.30250581	     -0.50011239	     -1.34748155	      0.16216498	      0.70109024	     -1.20687043	     65.53479332	    -36.67117711	    -11.72232169	     78.29456970	      1.36649803	     18.20415635	     -1.72567234	      0.00000000	     66.71673361	    -40.37441760	    -12.94736203	     78.78876845	      1.37512342	     19.67036121	      8.36982471	      0.00000000	    -11.75993205	      0.64303531	     -2.79879701	     44.96977188	    -15.00301238	     44.96977188	     75.00025584	     45.00000023	      0.00000000	      0.00000000	     44.96977188	    -15.00301238	     44.96977188	     75.00025584	     45.00000023	      0.00000000	      0.00000000
      0.67500000	    -16.06821509	     -0.50994965	     -1.34433157	      0.16194225	      0.69911195	     -1.20698320	     65.65188268	    -36.82455224	    -11.53519600	     78.75411243	      1.37451856	     18.23089172	     -1.72441037	      0.00000000	     66.85067035	    -40.53493706	    -12.77147907	     79.27717383	      1.38364771	     19.75519547	      8.31335266	      0.00000000	    -12.27983591	      0.67709289	     -2.80511669	     44.96987507	    -15.00299637	     44.96987507	     75.00025512	     45.00000023	      0.00000000	      0.00000000	     44.96987507	    -15.00299637	     44.96987507	     75.00025512	     45.00000023	      0.00000000	      0.00000000
      0.68000000	    -15.96539554	     -0.52524958	     -1.30659059	      0.16164761	      0.69671086	     -1.20711222	     65.93092648	    -36.96874992	    -11.28148186	     79.27230270	      1.38356269	     18.54070427	     -1.59392428	      0.00000000	     67.19065183	    -40.63155307	    -12.45982575	     79.77588954	      1.39235194	     20.02569713	      8.51692661	      0.00000000	    -12.63722791	      0.69852139	     -2.81872022	     44.96998536	    -15.00297920	     44.96998536	     75.00025434	     45.00000023	      0.00000000	      0.00000000	     44.96998536	    -15.00297920	     44.96998536	     75.00025434	     45.00000023	      0.00000000	      0.00000000
      0.68500000	    -15.98867071	     -0.53656964	     -1.27260603	      0.16132658	      0.69392729	     -1.20727242	     66.37519125	    -37.13772050	    -11.03261419	     79.80077310	      1.39278624	     18.82776374	     -1.36759327	      0.00000000	     67.71664109	    -40.71694161	    -12.08523103	     80.32929179	      1.40201063	     20.24854511	      8.76718603	      0.00000000	    -12.76556641	      0.73883820	     -2.85920650	     44.97010390	    -15.00296069	     44.97010390	     75.00025349	     45.00000023	      0.00000000	      0.00000000	     44.97010390	    -15.00296069	     44.97010390	     75.00025349	     45.00000023	      0.00000000	      0.00000000
      0.69000000	    -15.77873113	     -0.55795081	     -1.25621868	      0.16103587	      0.69170345	     -1.20738678	     66.56826177	    -37.29893025	    -10.81329626	     80.33110531	      1.40204228	     18.82538643	     -1.30790605	      0.00000000	     67.95076145	    -40.88241748	    -11.85280339	     80.85980239	      1.41126978	     20.30869072	      8.72839310	      0.00000000	    -13.19482782	      0.78299792	     -2.87710567	     44.97020886	    -15.00294448	     44.97020886	     75.00025276	     45.00000023	      0.00000000	      0.00000000	     44.97020886	    -15.00294448	     44.97020886	     75.00025276	     45.00000023	      0.00000000	      0.00000000
